<svg xmlns="http://www.w3.org/2000/svg" viewBox="0 0 25.096 25.096">
    <defs>
        <style>
            .cls-1{fill:#856e6e}
        </style>
    </defs>
    <g id="calendar-gray" transform="translate(-.001)">
        <path id="Path_187" data-name="Path 187" class="cls-1" d="M3.138 3.921V.784a.784.784 0 0 1 1.569 0v3.137a.784.784 0 0 1-1.569 0zm13.332.784a.784.784 0 0 0 .784-.784V.784a.784.784 0 0 0-1.569 0v3.137a.784.784 0 0 0 .785.785zm8.63 14.117a6.274 6.274 0 1 1-6.274-6.274 6.274 6.274 0 0 1 6.274 6.274zm-1.568 0a4.706 4.706 0 1 0-4.706 4.706 4.711 4.711 0 0 0 4.703-4.706zM6.275 9.411H3.138v3.137h3.137zm-3.137 7.842h3.137v-3.137H3.138zm4.705-4.706h3.137V9.411H7.843zm0 4.706h3.137v-3.137H7.843zM1.57 18.666V7.842h17.253v3.137h1.569V4.862a1.711 1.711 0 0 0-1.7-1.725h-.654v.784a1.568 1.568 0 1 1-3.137 0v-.784h-9.41v.784a1.568 1.568 0 1 1-3.137 0v-.784H1.7A1.712 1.712 0 0 0 0 4.862v13.8a1.714 1.714 0 0 0 1.7 1.725h9.28v-1.565H1.7a.148.148 0 0 1-.13-.156zm14.116-6.118V9.411h-3.137v3.137zm5.49 6.274h-2.353v-2.353a.784.784 0 0 0-1.568 0v3.137a.784.784 0 0 0 .784.784h3.137a.784.784 0 0 0 0-1.569z"/>
    </g>
</svg>
