<svg height="640" viewBox="0 -8 480 480" width="640" xmlns="http://www.w3.org/2000/svg">
    <path d="M8 104v240c0 17.672 14.328 32 32 32h336c8.836 0 16-7.164 16-16V104zm0 0" fill="#5aaae7"/>
    <path d="M392 360c-.027 8.824-7.176 15.973-16 16H40c-17.672 0-32-14.328-32-32V104h16v224c0 17.672 14.328 32 32 32zm0 0" fill="#3d9ae2"/>
    <path d="M472 328c-.023 61.246-43.43 113.895-103.547 125.594C308.332 465.297 248.352 432.77 225.36 376A126.075 126.075 0 0 1 216 328a129.06 129.06 0 0 1 1.441-19.441C227.071 246.109 280.81 200.012 344 200a126.075 126.075 0 0 1 48 9.36c48.379 19.515 80.043 66.472 80 118.64zm0 0" fill="#ffd422"/>
    <path d="M442.16 410.16c-28.851 34.461-73.668 51.266-118.066 44.27-44.399-6.993-81.875-36.766-98.735-78.43A126.075 126.075 0 0 1 216 328a129.06 129.06 0 0 1 1.441-19.441A127.46 127.46 0 0 1 261.761 230a123.334 123.334 0 0 0-12.64 18 127.529 127.529 0 0 0-15.68 44.559A129.06 129.06 0 0 0 232 312a126.075 126.075 0 0 0 9.36 48 128 128 0 0 0 200.8 50.16zm0 0" fill="#ebbf00"/>
    <path d="M360 40H40C22.328 40 8 54.328 8 72v32h384V72c0-17.672-14.328-32-32-32zm0 0" fill="#ff5023"/>
    <path d="M56 40c-17.672 0-32 14.328-32 32v32H8V72c0-17.672 14.328-32 32-32zm0 0" fill="#d95339"/>
    <path d="M64 264h32a8 8 0 0 1 8 8v32a8 8 0 0 1-8 8H64a8 8 0 0 1-8-8v-32a8 8 0 0 1 8-8zm0 0" fill="#e6e7e8"/>
    <path d="M104 296v8a8 8 0 0 1-8 8H64a8 8 0 0 1-8-8v-32a8 8 0 0 1 8-8h8v24a8 8 0 0 0 8 8zm0 0" fill="#d1d3d4"/>
    <path d="M144 264h32a8 8 0 0 1 8 8v32a8 8 0 0 1-8 8h-32a8 8 0 0 1-8-8v-32a8 8 0 0 1 8-8zm0 0" fill="#e6e7e8"/>
    <path d="M184 296v8a8 8 0 0 1-8 8h-32a8 8 0 0 1-8-8v-32a8 8 0 0 1 8-8h8v24a8 8 0 0 0 8 8zm0 0" fill="#d1d3d4"/>
    <path d="M224 264h9.121a127.529 127.529 0 0 0-15.68 44.559A8.098 8.098 0 0 1 216 304v-32a8 8 0 0 1 8-8zm0 0M344 176v24a126.69 126.69 0 0 0-47.84 9.281A3.318 3.318 0 0 1 296 208v-32a8 8 0 0 1 8-8h32a8 8 0 0 1 8 8zm0 0" fill="#e6e7e8"/>
    <path d="M320 168a8 8 0 0 0-8 8v28.078a118.27 118.27 0 0 0-15.84 5.203A3.318 3.318 0 0 1 296 208v-32a8 8 0 0 1 8-8zm0 0" fill="#d1d3d4"/>
    <path d="M224 168h32a8 8 0 0 1 8 8v32a8 8 0 0 1-8 8h-32a8 8 0 0 1-8-8v-32a8 8 0 0 1 8-8zm0 0" fill="#e6e7e8"/>
    <path d="M264 200v8a8 8 0 0 1-8 8h-32a8 8 0 0 1-8-8v-32a8 8 0 0 1 8-8h8v24a8 8 0 0 0 8 8zm0 0" fill="#d1d3d4"/>
    <path d="M144 168h32a8 8 0 0 1 8 8v32a8 8 0 0 1-8 8h-32a8 8 0 0 1-8-8v-32a8 8 0 0 1 8-8zm0 0" fill="#e6e7e8"/>
    <path d="M184 200v8a8 8 0 0 1-8 8h-32a8 8 0 0 1-8-8v-32a8 8 0 0 1 8-8h8v24a8 8 0 0 0 8 8zm0 0" fill="#d1d3d4"/>
    <path d="M64 168h32a8 8 0 0 1 8 8v32a8 8 0 0 1-8 8H64a8 8 0 0 1-8-8v-32a8 8 0 0 1 8-8zm0 0" fill="#ff5023"/>
    <path d="M104 200v8a8 8 0 0 1-8 8H64a8 8 0 0 1-8-8v-32a8 8 0 0 1 8-8h8v24a8 8 0 0 0 8 8zm0 0" fill="#d95339"/>
    <g fill="#ff9811">
        <path d="M296 40v16c0 8.836-7.164 16-16 16s-16-7.164-16-16V40zm0 0M296 24v16h-32V24c.027-8.824 7.176-15.973 16-16 8.809.066 15.934 7.191 16 16zm0 0M136 40v16c0 8.836-7.164 16-16 16s-16-7.164-16-16V40zm0 0M136 24v16h-32V24c.027-8.824 7.176-15.973 16-16 8.809.066 15.934 7.191 16 16zm0 0M360 328c0 8.836-7.164 16-16 16s-16-7.164-16-16 7.164-16 16-16 16 7.164 16 16zm0 0"/>
    </g>
    <path d="M344 192c-75.11 0-136 60.89-136 136s60.89 136 136 136 136-60.89 136-136c-.082-75.074-60.926-135.918-136-136zm0 256c-66.273 0-120-53.727-120-120s53.727-120 120-120 120 53.727 120 120c-.074 66.242-53.758 119.926-120 120zm0 0"/>
    <path d="M352 305.473V256h-16v49.473A23.977 23.977 0 0 0 321.473 320H288v16h33.473c3.699 10.531 14.187 17.11 25.28 15.855a23.949 23.949 0 0 0 21.102-21.101c1.254-11.094-5.324-21.582-15.855-25.281zM344 336a8 8 0 1 1 0-16 8 8 0 0 1 0 16zm0 0M240 320h16v16h-16zm0 0M336 416h16v16h-16zm0 0M432 320h16v16h-16zm0 0M336 224h16v16h-16zm0 0"/>
    <path d="M16 344V112h368v72h16V72c-.027-22.082-17.918-39.973-40-40h-56v-8c0-13.254-10.746-24-24-24s-24 10.746-24 24v8H144v-8c0-13.254-10.746-24-24-24S96 10.746 96 24v8H40C17.918 32.027.027 49.918 0 72v272c.027 22.082 17.918 39.973 40 40h160v-16H40c-13.254 0-24-10.746-24-24zM272 24a8 8 0 0 1 16 0v32a8 8 0 0 1-16 0zm-160 0a8 8 0 0 1 16 0v32a8 8 0 0 1-16 0zM40 48h56v8c0 13.254 10.746 24 24 24s24-10.746 24-24v-8h112v8c0 13.254 10.746 24 24 24s24-10.746 24-24v-8h56c13.254 0 24 10.746 24 24v24H16V72c0-13.254 10.746-24 24-24zm0 0"/>
    <path d="M112 176c0-8.836-7.164-16-16-16H64c-8.836 0-16 7.164-16 16v32c0 8.836 7.164 16 16 16h32c8.836 0 16-7.164 16-16zm-48 32v-32h32v32zm0 0M192 176c0-8.836-7.164-16-16-16h-32c-8.836 0-16 7.164-16 16v32c0 8.836 7.164 16 16 16h32c8.836 0 16-7.164 16-16zm-48 32v-32h32v32zm0 0M272 200v-24c0-8.836-7.164-16-16-16h-32c-8.836 0-16 7.164-16 16v32c0 8.836 7.164 16 16 16h16v-16h-16v-32h32v24zm0 0M96 256H64c-8.836 0-16 7.164-16 16v32c0 8.836 7.164 16 16 16h32c8.836 0 16-7.164 16-16v-32c0-8.836-7.164-16-16-16zm-32 48v-32h32v32zm0 0M176 256h-32c-8.836 0-16 7.164-16 16v32c0 8.836 7.164 16 16 16h32c8.836 0 16-7.164 16-16v-32c0-8.836-7.164-16-16-16zm-32 48v-32h32v32zm0 0M352 184v-8c0-8.836-7.164-16-16-16h-32c-8.836 0-16 7.164-16 16v8h16v-8h32v8zm0 0"/>
</svg>
