<svg height="475pt" viewBox="-17 0 475 475.63657" width="475pt" xmlns="http://www.w3.org/2000/svg">
    <path d="M417.117 51.637h-288v400c.028 8.824 7.176 15.972 16 16h272c8.828-.028 15.977-7.176 16-16v-384c-.023-8.825-7.172-15.973-16-16zm0 0" fill="#78b9eb"/>
    <path d="M305.117 363.637v56l-24-16-24 16v-56zm0 0" fill="#ff5023"/>
    <path d="M329.117 323.637a47.876 47.876 0 0 1-24 41.52 47.681 47.681 0 0 1-48 0c-20.176-11.65-29.074-36.11-21.097-58 7.976-21.895 30.523-34.895 53.464-30.833 22.946 4.059 39.657 24.012 39.633 47.313zm0 0" fill="#00ccb3"/>
    <path d="M305.117 323.637c0 13.254-10.742 24-24 24-13.254 0-24-10.746-24-24s10.746-24 24-24c13.258 0 24 10.746 24 24zm0 0" fill="#ffa733"/>
    <path d="M393.117 51.637v64l-16-16-16 16v-64zm0 0" fill="#ff5023"/>
    <path d="M49.117 187.637h32v192h-32zm0 0" fill="#5aaae7"/>
    <path d="M81.117 171.637v16h-32v-16c.028-8.825 7.176-15.973 16-16 8.809.066 15.938 7.191 16 16zm0 0" fill="#3d9ae2"/>
    <path d="M81.117 379.637v8l-16 40-16-40v-8zm0 0" fill="#1e81ce"/>
    <path d="M173.2 49.957l13.84 51.758s-26.724 23.683-49.923 29.922c-23.199 6.238-58.238-.961-58.238-.961l-13.84-51.68v-.078l59.68 6.32zm0 0" fill="#898890"/>
    <path d="M214.797 19.715l-41.598 30.242-48.48 35.281-59.68-6.32-51.121-5.363L104 8.035zm0 0" fill="#acabb1"/>
    <path d="M417.117 43.637h-208v16h144v56a8 8 0 0 0 13.656 5.656l10.344-10.344 10.344 10.344a8.007 8.007 0 0 0 8.719 1.734 8.002 8.002 0 0 0 4.937-7.39v-56h16a8 8 0 0 1 8 8v384a8 8 0 0 1-8 8h-272a8 8 0 0 1-8-8v-296h-16v296c0 13.254 10.746 24 24 24h272c13.258 0 24-10.746 24-24v-384c0-13.254-10.742-24-24-24zm-32 52.687l-2.344-2.344a8.004 8.004 0 0 0-11.312 0l-2.344 2.344V59.637h16zm0 0"/>
    <path d="M169.117 171.637h176v16h-176zm0 0M361.117 171.637h32v16h-32zm0 0M169.117 203.637h224v16h-224zm0 0M249.117 123.637h64v16h-64zm0 0M265.117 91.637h32v16h-32zm0 0M281.117 355.637c17.676 0 32-14.328 32-32s-14.324-32-32-32c-17.672 0-32 14.328-32 32s14.328 32 32 32zm0-48c8.836 0 16 7.164 16 16s-7.164 16-16 16-16-7.164-16-16 7.164-16 16-16zm0 0"/>
    <path d="M253.344 426.691a7.999 7.999 0 0 0 8.215-.398l19.558-13.055 19.563 13.04a7.998 7.998 0 1 0 12.438-6.64v-50.115c20.081-13.98 28.757-39.378 21.429-62.726-7.324-23.344-28.961-39.23-53.43-39.23s-46.101 15.886-53.43 39.23c-7.328 23.348 1.352 48.746 21.43 62.726v50.114a8.002 8.002 0 0 0 4.227 7.054zm43.773-22.007l-11.558-7.704a8 8 0 0 0-8.88 0l-11.562 7.704v-27.407a55.453 55.453 0 0 0 32 0zm-56-81.047c0-22.09 17.91-40 40-40 22.094 0 40 17.91 40 40s-17.906 40-40 40c-22.078-.028-39.972-17.918-40-40zm0 0M192.375 107.637a8 8 0 0 0 2.422-8l-12.43-46.399 37.153-27.05a8 8 0 0 0 2.988-8.52 7.99 7.99 0 0 0-6.856-5.879L104.84.043a8.032 8.032 0 0 0-5.555 1.488L9.184 67.086a7.992 7.992 0 0 0-3.024 8.55l9.492 35.434L.316 137.582l13.868 8 7.312-12.672 3.285 12.254 15.457-4.137-3.289-12.246 12.664 7.313 8-13.864-26.504-15.312-6.48-24.184 34.098 3.606 12.433 46.402a7.997 7.997 0 0 0 6.125 5.758 203.836 203.836 0 0 0 36.8 3.656c8.462.14 16.907-.8 25.13-2.8 24.695-6.614 52.015-30.665 53.16-31.72zm-86.16-91.36l87.062 9.207-70.8 51.504-87.07-9.199zm-20.93 107.407l-9.52-35.543 48.09 5.09c.278.03.56.046.84.046a8.012 8.012 0 0 0 4.703-1.535l39.106-28.449 9.52 35.543a137.54 137.54 0 0 1-42.977 25.074 137.637 137.637 0 0 1-49.762-.226zm0 0M65.117 147.637c-13.254 0-24 10.746-24 24v216c0 1.02.196 2.027.57 2.976l16 40a7.998 7.998 0 0 0 14.863 0l16-40c.376-.949.567-1.957.567-2.976v-216c0-13.254-10.742-24-24-24zm0 16a8 8 0 0 1 8 8v8h-16v-8a8 8 0 0 1 8-8zm-8 208v-176h16v176zm8 34.465l-7.383-18.465h14.77zm0 0"/>
</svg>
