<svg xmlns="http://www.w3.org/2000/svg" viewBox="0 0 18.578 18.95">
    <defs>
        <style>
            .a{fill:#9f9393}
        </style>
    </defs>
    <path class="a" d="M14.972 9.62a.325.325 0 0 0-.582.149l-.181 1.266a.32.32 0 0 1-.017.048 5.849 5.849 0 0 0 .8-1.441zM13.886 11.313h-.046l-1.932-.276a.325.325 0 0 1-.276-.368l.181-1.266a.325.325 0 0 0-.517-.306l-1.023.767a.325.325 0 0 1-.455-.065L8.647 8.237a.325.325 0 0 1 .065-.455l1.022-.767a.325.325 0 0 0-.149-.582l-1.266-.181a.325.325 0 0 1-.276-.368l.276-1.932a.325.325 0 0 1 .368-.276l1.266.181a.323.323 0 0 0 .325-.156.318.318 0 0 0-.02-.361l-.766-1.022a.325.325 0 0 1 .065-.455l.184-.138a5.965 5.965 0 0 0-.9.024 5.856 5.856 0 0 0-2.487 10.744 1.865 1.865 0 0 1 .882 1.563v1.315a.976.976 0 0 0 .976.976h2.6a.976.976 0 0 0 .976-.976v-1.288a1.916 1.916 0 0 1 .9-1.6 5.9 5.9 0 0 0 1.358-1.217.325.325 0 0 1-.16.047zm-4.048 4.058h-.65v-.978h.651zm-.651-1.627a2.077 2.077 0 0 0-1.334-1.939 4.555 4.555 0 0 1-.768-8.1l.345.55a3.9 3.9 0 0 0 .658 6.94 2.722 2.722 0 0 1 1.75 2.544zM8.209 17.974v.325a.651.651 0 0 0 .651.651h1.3a.651.651 0 0 0 .651-.651v-.325z"/>
    <path class="a" d="M6.178 12.769a6.157 6.157 0 0 1-.556-.406 1.948 1.948 0 1 1-1.967-2.83 6.2 6.2 0 0 1-.258-1.1l-.057.271a.651.651 0 0 1-1.006.4l-.677-.465-.593.591.466.677a.651.651 0 0 1-.4 1.006l-.811.171v.773l.811.171a.651.651 0 0 1 .4 1.006l-.466.674.593.591.676-.466a.651.651 0 0 1 1.006.4l.17.812h.773l.17-.811a.651.651 0 0 1 1.006-.4l.676.465.7-.7a1.588 1.588 0 0 0-.656-.83zM8.212 16.673h2.603v.651H8.212zM17.637 5.609a.976.976 0 0 1-.447-1.747l.762-.572-.781-1.041-.762.572a.976.976 0 0 1-1.552-.917l.135-.943-1.288-.184-.135.943a.976.976 0 0 1-1.747.447l-.572-.764-1.041.781.572.762a.976.976 0 0 1-.919 1.552l-.943-.135-.185 1.288.943.135a.976.976 0 0 1 .447 1.747l-.762.572.781 1.041.762-.572a.976.976 0 0 1 1.552.919l-.135.943 1.291.185.135-.943a.976.976 0 0 1 1.747-.447l.572.762 1.041-.781-.574-.764a.976.976 0 0 1 .918-1.552l.943.135.184-1.288zm-3.98 2.041a1.952 1.952 0 1 1 1.952-1.952 1.952 1.952 0 0 1-1.952 1.952zM15.695 12.118h2.277v.651h-2.277zM15.161 14.32l.417-.5 1.951 1.626-.417.5zM13.743 14.721h.651v2.277h-.651zM0 5.621l2.603-.65.158.63-2.603.65zM.54 2.298l.378-.53 2.277 1.627-.377.529zM3.328.161L3.958 0l.667 2.602-.63.162z"/>
</svg>
