<svg xmlns="http://www.w3.org/2000/svg" viewBox="0 0 21.509 24">
    <defs>
        <style>
            .a{fill:#4e3d3d}
        </style>
    </defs>
    <path class="a" d="M15.276 10.313a.937.937 0 0 0-.937-.937H4.686a.938.938 0 0 0 0 1.875h9.656a.937.937 0 0 0 .934-.938zM4.686 13.125a.938.938 0 0 0 0 1.875h5.865a.938.938 0 0 0 0-1.875z"/>
    <path class="a" d="M6.885 22.125H3.75a1.877 1.877 0 0 1-1.875-1.875V3.75A1.877 1.877 0 0 1 3.75 1.875h11.526a1.877 1.877 0 0 1 1.875 1.875v5.766a.938.938 0 0 0 1.875 0V3.75A3.754 3.754 0 0 0 15.276 0H3.75A3.754 3.754 0 0 0 0 3.75v16.5A3.754 3.754 0 0 0 3.75 24h3.135a.938.938 0 0 0 0-1.875z"/>
    <path class="a" d="M20.687 13.574a2.815 2.815 0 0 0-3.977 0l-5.147 5.136a.938.938 0 0 0-.235.391l-1.121 3.69a.937.937 0 0 0 1.147 1.176l3.784-1.048a.937.937 0 0 0 .412-.24l5.136-5.127a2.816 2.816 0 0 0 .001-3.978zm-6.286 7.6l-1.9.527.557-1.834 3.473-3.465 1.322 1.325zm4.961-4.952l-.182.181-1.326-1.326.181-.181a.938.938 0 0 1 1.326 1.325zM14.339 5.625H4.686a.938.938 0 0 0 0 1.875h9.656a.938.938 0 0 0 0-1.875z"/>
</svg>
