<svg xmlns="http://www.w3.org/2000/svg" viewBox="0 0 317.215 317.215">
    <g fill="#fff">
        <path d="M309.715 1.108h-71.223a7.5 7.5 0 0 0-7.5 7.5v20a7.5 7.5 0 0 0 7.5 7.5h18.973l-57.128 57.127a7.5 7.5 0 0 0-.001 10.606l14.142 14.143a7.5 7.5 0 0 0 10.607 0l57.129-57.128V79.83a7.5 7.5 0 0 0 7.5 7.5h20a7.5 7.5 0 0 0 7.5-7.5V8.608a7.499 7.499 0 0 0-7.499-7.5zM102.734 199.233a7.503 7.503 0 0 0-10.607 0L35 256.36v-18.975a7.5 7.5 0 0 0-7.5-7.5h-20a7.5 7.5 0 0 0-7.5 7.5v71.223a7.5 7.5 0 0 0 7.5 7.5h71.223a7.5 7.5 0 0 0 7.5-7.5v-20a7.5 7.5 0 0 0-7.5-7.5H59.749l57.126-57.125a7.5 7.5 0 0 0 0-10.606l-14.141-14.144z"/>
    </g>
</svg>
