<svg xmlns="http://www.w3.org/2000/svg" viewBox="0 0 24 31.345">
    <defs>
        <style>
            .a{fill:#1b1f22}
        </style>
    </defs>
    <path class="a" d="M21.58 22.04a2.315 2.315 0 0 0-1.321-1.127l-3.6-1.656-1.728-1.457-2.776 2.761 1.2 8.008a.105.105 0 0 1-.019.078l-1.253 1.714a.106.106 0 0 1-.171 0l-1.252-1.714a.105.105 0 0 1-.019-.078l1.2-8.008L9.065 17.8l-1.728 1.457-3.6 1.656a2.336 2.336 0 0 0-1.321 1.127s-3.909 9.305-1.789 9.305h22.741c2.121.001-1.788-9.305-1.788-9.305zM21.83 9.282a.2.2 0 0 0 .18-.223l-.121-1.03-.079-.72a.2.2 0 0 0-.217-.176h-.156V4.719l.081-.03.271-.1a.58.58 0 0 0 0-1.091L12.197.035a.579.579 0 0 0-.394 0L2.21 3.5a.58.58 0 0 0 0 1.091l3.546 1.282a8.674 8.674 0 0 0-.354 2.7c.062 5.746 3.4 9.173 6.484 9.173 3.05 0 6.422-3.426 6.484-9.173a8.758 8.758 0 0 0-.332-2.629l2.578-.932.005 2.119h-.156a.2.2 0 0 0-.217.177l-.2 1.75a.2.2 0 0 0 .043.149.2.2 0 0 0 .136.073m-8.342 7.071c-2.693 0-4.551-3.154-4.926-6.308-.349-2.914 3.873-3.05 4.118-1.243.075.556-.563 1.151-.49 1.38.357 1.133 6.266-3.7 6.226-.137-.029 2.515-2.361 6.31-4.926 6.31z"/>
</svg>
