<svg height="640" viewBox="-8 0 480 480.18197" width="640" xmlns="http://www.w3.org/2000/svg">
    <path d="M215.691 9.063C147.414 17.12 94.261 72.148 88.571 140.66a143.091 143.091 0 0 0 43.921 115.363 92.79 92.79 0 0 1 27.598 67.36v20.8h144v-20.882a94.654 94.654 0 0 1 28.48-68.078c44.078-42.989 55.95-109.239 29.543-164.856C335.703 34.75 276.86 2.078 215.691 9.063zm0 0" fill="#ffd422"/>
    <path d="M232.09 184.184h40v160h-40zm0 0" fill="#00b39d"/>
    <path d="M192.09 184.184h40v160h-40zm0 0" fill="#00ccb3"/>
    <path d="M252.09 152.184l20 32h-80l20-32zm0 0" fill="#c6c5ca"/>
    <path d="M232.09 120.184l20 32h-40zm0 0" fill="#898890"/>
    <path d="M184.09 440.184h96c0 17.671-14.324 32-32 32h-32c-17.672 0-32-14.329-32-32zm0 0" fill="#c6c5ca"/>
    <path d="M296.09 392.184c13.258 0 24 10.742 24 24 0 13.254-10.742 24-24 24h-128c-13.254 0-24-10.746-24-24 0-13.258 10.746-24 24-24zm0 0" fill="#898890"/>
    <path d="M312.09 344.184c13.258 0 24 10.742 24 24 0 13.254-10.742 24-24 24h-160c-13.254 0-24-10.746-24-24 0-13.258 10.746-24 24-24zm0 0" fill="#acabb1"/>
    <path d="M224.09 64.184h16v16h-16zm0 0M181.164 79.969l13.856-8 8 13.855-13.86 8zm0 0M151.879 115.117l8-13.86 13.855 8.005-8 13.855zm0 0M144.09 144.184h16v16h-16zm0 0M151.887 189.25l13.855-8 8 13.855-13.855 8zm0 0M290.445 195.117l8-13.855 13.86 8-8.004 13.855zm0 0M304.09 144.184h16v16h-16zm0 0M290.445 109.254l13.856-8 8 13.86-13.86 8zm0 0M261.168 85.836l7.996-13.86 13.86 8-8 13.86zm0 0"/>
    <path d="M312.09 336.184v-12.801a87.457 87.457 0 0 1 26.05-62.403 150.568 150.568 0 0 0 45.95-108.796c.086-69.227-46.621-129.766-113.602-147.254-66.98-17.489-137.316 12.492-171.086 72.925-33.77 60.43-22.437 136.047 27.563 183.926a85.184 85.184 0 0 1 25.125 61.602v12.8c-15.602-.038-28.945 11.212-31.547 26.594-2.602 15.383 6.297 30.395 21.043 35.493a32.018 32.018 0 0 0-1.746 32.921 32.015 32.015 0 0 0 28.25 16.993h8.8c3.829 18.609 20.2 31.972 39.2 32h32c19-.028 35.375-13.391 39.2-32h8.8a32 32 0 0 0 26.504-49.914c14.746-5.098 23.648-20.11 21.043-35.493-2.602-15.382-15.942-26.632-31.547-26.593zm-174.063-85.938a135.647 135.647 0 0 1-41.511-108.953c5.68-64.54 55.699-116.324 120-124.246 57.777-6.676 113.402 24.16 138.359 76.695 24.957 52.535 13.715 115.133-27.96 155.703a103.553 103.553 0 0 0-30.825 73.938v12.8h-16v-152c0-1.5-.422-2.968-1.215-4.242l-40-64a8.32 8.32 0 0 0-13.602 0l-40 64a8.04 8.04 0 0 0-1.183 4.243v152h-16v-12.801a101.245 101.245 0 0 0-30.063-73.137zm78.496-90.062h31.137l10 16h-51.168zm10-16l5.598-8.907 5.57 8.907zm-26.433 48h24v144h-24zm40 0h24v144h-24zm8 272h-32a24.003 24.003 0 0 1-22.527-16h77.054a23.995 23.995 0 0 1-22.527 16zm48-32h-128c-8.836 0-16-7.164-16-16 0-8.84 7.164-16 16-16h128c8.836 0 16 7.16 16 16 0 8.836-7.164 16-16 16zm16-48h-160c-8.836 0-16-7.164-16-16 0-8.84 7.164-16 16-16h160c8.836 0 16 7.16 16 16 0 8.836-7.164 16-16 16zm0 0M400.09 144.184h32v16h-32zm0 0M373.586 61.246l27.71-16 8 13.86-27.714 15.996zm0 0M54.887 59.11l8-13.856 27.715 16-8 13.855zm0 0M32.09 144.184h32v16h-32zm0 0"/>
    <path d="M54.887 245.25l27.715-16 8 13.86-27.715 15.995zm0 0M373.582 243.11l8-13.856 27.711 16-8 13.855zm0 0M360.09 408.184h16v16h-16zm0 0M392.09 408.184h16v16h-16zm0 0M448.09 408.184h-24v16h32a8 8 0 0 0 8-8v-128h-16zm0 0M448.09 256.184h16v16h-16zm0 0M88.09 408.184h16v16h-16zm0 0M56.09 408.184h16v16h-16zm0 0M16.09 288.184h-16v128a8 8 0 0 0 8 8h32v-16h-24zm0 0M.09 256.184h16v16h-16zm0 0"/>
    <path d="M32.09 376.184h16v16h-16zm0 0M32.09 344.184h16v16h-16zm0 0M416.09 376.184h16v16h-16zm0 0M416.09 344.184h16v16h-16zm0 0"/>
</svg>
