<svg xmlns="http://www.w3.org/2000/svg" viewBox="0 0 45 45">
    <defs>
        <style>
            .a{fill:#bfbfef}.b{fill:#455654}.c{fill:#fff}.d{fill:#2f2525}.e{fill:#313536}
        </style>
    </defs>
    <path class="a" d="M22.5 45A22.5 22.5 0 1 0 0 22.5 22.543 22.543 0 0 0 22.5 45z"/>
    <path class="b" d="M13.518 11.713v25.39l5.587-4.908V6.805h-.727l-.387.3h-3.673v-.3h-.6l-5.591 4.908h5.393z"/>
    <path class="c" d="M8.887 11.993h3.988l5.108-4.613h-3.988z"/>
    <path class="d" d="M14.951 10.373l-.662-.01-1.384 1.25H8.921l1.449-1.309-.717-.011-1.5 1.32v25.39h5.392l1.406-1.24v-25.39z"/>
    <path class="e" d="M21.947 11.713v25.39l5.587-4.908V6.805h-.727l-.387.3h-3.673v-.3h-.6l-5.588 4.908h5.393z"/>
    <path class="c" d="M17.327 11.993h3.988l5.108-4.613h-3.988z"/>
    <path class="d" d="M23.409 10.373l-.662-.01-1.384 1.25h-3.988l1.449-1.309-.717-.011-1.5 1.32v25.39h5.392l1.412-1.24v-25.39z"/>
    <path class="b" d="M33.225 6.365l-4.137 6.18 6.531 24.535 4.137-6.18-6.531-24.535-.7.187-.3.385-3.549.945-.078-.29-.583.16-4.137 6.18 5.211-1.387z"/>
    <path class="c" d="M24.954 13.557l3.854-1.026 3.749-5.771-3.854 1.026-3.75 5.772z"/>
    <path class="d" d="M30.385 10.391l-.642.161-1.013 1.564-3.854 1.026 1.064-1.638-.7.174-1.11 1.658 6.531 24.535 5.211-1.387 1.045-1.561-6.531-24.536z"/>
    <path class="c" d="M34.681 12.899l-.328-1.248-2.312 3.78.328 1.248 2.312-3.78zM33.432 12.19l-.174-.811-1.56 2.551.174.811 1.56-2.551z"/>
</svg>
