<svg xmlns="http://www.w3.org/2000/svg" viewBox="0 0 12.559 12.559">
    <defs>
        <style>
            .a{fill:#d6d9d9}
        </style>
    </defs>
    <path class="a" d="M11.868.691A2.268 2.268 0 0 0 10.204 0H2.355A2.269 2.269 0 0 0 .691.691a2.268 2.268 0 0 0-.694 1.664V10.2a2.269 2.269 0 0 0 .691 1.664 2.268 2.268 0 0 0 1.664.691h7.849a2.359 2.359 0 0 0 2.358-2.355V2.355a2.269 2.269 0 0 0-.691-1.664zm-1.4 5.85a.489.489 0 0 1-.319.482.569.569 0 0 1-.2.041.486.486 0 0 1-.368-.155L8.397 5.732 4.031 10.1a.514.514 0 0 1-.736 0l-.834-.834a.513.513 0 0 1 0-.736l4.367-4.368L5.65 2.984a.472.472 0 0 1-.115-.572.489.489 0 0 1 .482-.319h3.926a.531.531 0 0 1 .523.523v3.925z"/>
</svg>
