<svg version="1" xmlns="http://www.w3.org/2000/svg" width="341.333" height="304" viewBox="0 0 256.000000 228.000000">
    <g fill="#222">
        <path d="M67.2 2.3C62.3 5.6 60 9.7 60 15.4c0 7.9 5.2 14.1 12.5 14.7 6.3.5 8.6-.2 12.4-3.6l3.9-3.6 12.3.3 12.4.3 3.7 6c2 3.3 3.7 6.6 3.7 7.2.1 1-6.3 1.3-28.7 1.3-21.5 0-29.2.3-30.4 1.2C60 40.6 54 50.5 54 52c0 .6 14 1 36.8 1 34.1 0 36.9.1 39.8 1.9 1.7 1 3.8 3.4 4.7 5.3 2.6 5.5 5.1 7.1 11.8 7.6 3.3.3 6.5 0 7-.5.7-.7-2.9-7.8-10.2-20.4-20.4-35.5-21.8-37.6-24.1-38.3-1.3-.3-8.9-.6-16.9-.6-14.4 0-14.6 0-17-2.6-5.4-5.8-12.8-7-18.7-3.1zm13.9 6.6c4.8 4.8 3.5 12.1-2.7 14.7-9.5 4-16.8-7.4-9.5-14.7 2-2 3.9-2.9 6.1-2.9 2.2 0 4.1.9 6.1 2.9zM179 6.8c-1.9.9-4.5 3.3-5.8 5.2-2 2.9-2.3 4.4-2 9.3.4 4.8.9 6.3 3.4 8.8 1.7 1.7 4.8 3.6 7 4.4 3.5 1.2 4.5 2.4 9.3 10.9 2.9 5.3 5.4 10.7 5.4 12 0 2.8-6.3 13.8-7.7 13.3-.5-.2-6.8-10.7-14-23.4s-13.8-24.1-14.7-25.4c-1.4-2-2.6-2.4-9.3-2.7-5.3-.3-7.6-.1-7.6.7 0 1.3 12.2 23.6 23.8 43.6 4.2 7.1 8.4 14.7 9.4 16.7 2.6 5.2 2.3 10.6-.7 15-1.5 2.2-2.5 5-2.4 7 .1 3.4 4.8 12.4 6.5 12.2 1.6-.1 33.4-54.8 33.4-57.4 0-1.4-3.2-8.2-7.1-15-6.7-11.9-7-12.7-6-16.1 1.6-5.4 1.3-9-1.2-13.3-4-7-12.4-9.5-19.7-5.8zm13.1 7.1c3.9 4 4 8.7.1 12.4-6 5.7-15.2 2.1-15.2-6 .1-8.6 9.1-12.4 15.1-6.4zM37.1 60.3c-1.2.7-5.9 6.8-10.4 13.6-8 12.2-8.3 12.5-13.1 13.7C-.3 91.2-3.6 107.8 8.2 115c5.3 3.2 9.2 3.5 14 1.1 6.4-3.2 8.3-6.3 8.4-14.3.1-6.5.3-7.1 6.2-16.2 3.4-5.2 7-10 8-10.5 2.5-1.3 16.4-.2 15.9 1.3-.3.6-4.2 6.8-8.8 13.8C33.1 118.7 30 123.9 30 126.1c0 2.2 4.1 11.2 6 13.3.7.7 15.2-20.7 34-50.1 3.2-5 7.1-10 8.6-11 1.8-1.2 5.4-2 10.3-2.3l7.5-.5 3.8-5.4c2.1-3 3.8-5.8 3.8-6.2 0-1-7.6-1.6-33.5-2.9-11.5-.6-23.3-1.2-26.1-1.4-2.8-.2-6.1.1-7.3.7zm-15 35.6c7 7 .5 18.1-8.8 15-7.5-2.4-8.5-12.6-1.5-16.3 4.1-2.3 7.1-1.9 10.3 1.3zM195.4 112.3c-20.6 34.2-21 34.7-31 34.7-5.7 0-6.4.2-8.8 3.1-3.6 4.3-5.9 9-4.9 9.9.4.4 15.3 1.1 33 1.5l32.2.7 2.3-2.5c1.3-1.4 5.2-7.3 8.8-13.2 3.5-5.9 7.1-10.9 8-11.2 5.3-1.7 7.4-3 9.7-6 7.2-9.4 1.2-23-10.6-24-5.7-.5-10.7 1.9-13.9 6.7-2 2.9-2.3 4.4-1.9 9 .2 3 .7 6.2 1.1 7 .4 1-1.3 4.7-4.6 10l-5.3 8.5-8.8.3c-4.8.1-8.7.1-8.7-.1s6.5-11.2 14.5-24.3c8-13.1 14.8-24.9 15.1-26.1.7-2.5-5.2-14.3-7-14.3-.6 0-9.3 13.6-19.2 30.3zm43.7 1.6c3.7 3.7 3.8 7.9.3 12-5.4 6.5-15.4 2.8-15.4-5.8 0-3.2.6-4.4 3.1-6.5 4.1-3.5 8.3-3.4 12 .3zM66.7 115.8C64 120 56.3 132.3 49.5 143 42.6 153.7 37 163.4 37 164.5c0 1.1 3.2 8 7 15.4l6.9 13.4-1.6 4.9c-1.4 4.5-1.4 5.2.2 9.3 4.2 11.1 17.7 13.7 25.4 5 3.7-4.3 4.8-9.4 3-14.7-1.4-4.4-6.4-9-10.5-9.8-2.2-.4-3.7-2.3-8-10.5-3-5.5-5.4-11.1-5.4-12.3 0-2.4 6.6-14.2 7.9-14.2.7 0 2 2.5 14.6 26.5 3.2 6 7.3 13.9 9.2 17.5 1.9 3.6 4.2 7.1 5.1 7.7 2 1.6 15.2 1.8 15.2.2 0-1.1-11.7-24-24.2-47.2-9.7-17.9-10.3-20.8-5.9-27.8 1.7-2.8 3.1-5.9 3.1-7 0-2.9-4.9-12.9-6.3-12.9-.7 0-3.4 3.5-6 7.8zm.2 78.3c3.1 1.1 6.1 5.2 6.1 8.4 0 5.3-6.2 10.2-11.3 9-8.6-2.2-9.5-14.2-1.2-17.6 2.7-1.1 2.8-1.1 6.4.2zM96 156.9c0 2.3 30.1 56.7 32.1 58.1 1.6 1.1 6 1.6 16.3 1.9l14.1.3 3.2 3.8c4 4.6 8.1 6.4 13.3 5.7 18.4-2.4 17.2-29.7-1.4-29.7-4.8 0-7.7 1-10.9 3.9-1.5 1.3-3.9 1.5-13 1.2-6.2-.2-12-.7-12.9-1.2-1.7-.9-8.9-12.9-8.3-13.8.2-.4 13.4-.2 29.4.2 22.4.7 29.5.6 30.6-.3 1.8-1.5 7.9-12 7.3-12.5-.7-.7-38.6-2.5-53.8-2.5-8 0-16.2-.5-18.2-1-3.6-1-9.8-7.1-9.8-9.7 0-.6-1.2-2.1-2.6-3.2-2.1-1.6-4.1-2.1-9-2.1-3.5 0-6.4.4-6.4.9zm83.9 48.5c3.6 3.6 3.2 9.2-.9 12.9-2.7 2.4-3.9 2.8-6.9 2.3-8.8-1.4-10.8-13.6-2.7-17.2 3.8-1.7 7.4-1 10.5 2z"/>
    </g>
</svg>
