<svg version="1" xmlns="http://www.w3.org/2000/svg" width="718.667" height="245.333" viewBox="0 0 539.000000 184.000000">
    <g fill="#FFF">
        <path d="M99.6 3.1C97.5 5.5 97 7.2 97 11.3c.1 5.5 1.4 7.8 6.3 11L106 24v27H78V22H40.5l-1.2-2.8C37.7 15.7 32.8 13 28 13c-3.2 0-4.7.7-8 3.8-3.6 3.5-4 4.4-4 8.9 0 4.1.5 5.5 3 8.3 2.6 2.9 3.7 3.4 8.8 3.8 5.2.4 6.1.1 9-2.3 1.8-1.5 3.2-3.3 3.2-4.1 0-1.1 2.8-1.4 15.5-1.4H71v21H51v20H37.1c-13.1 0-14-.1-14.6-2-1.9-5.9-11.7-8.8-17.3-5.3C.8 66.6.1 68.2 0 75.2c0 6.2.2 6.8 3.2 9.3 2.8 2.4 3.9 2.7 8.8 2.3 5.9-.4 8.6-2 10.9-6.6C24 78.1 24.6 78 37.5 78H51v28H22v36.8l-2.5 1.6c-5 3.3-6.5 5.8-6.5 10.8 0 4.3.4 5.2 4 8.8 3.4 3.4 4.6 4 8.3 4 4.3 0 7.6-1.6 11-5.3 2.8-3.2 2.3-11.8-.8-15.6-1.4-1.6-3.4-3.2-4.3-3.5-1.5-.5-1.7-2.3-1.7-15.6v-15H51v20h20V159.3l-4.5 4.1c-4.2 3.9-4.5 4.6-4.5 9.3 0 4.4.4 5.5 3.2 8.2 2.9 2.8 3.7 3.1 9.9 3.1 6.3 0 6.9-.2 9.3-3.1 2.1-2.4 2.6-4.1 2.6-8.2-.1-5.5-1.4-7.8-6.2-11L78 160v-27h28v29h37.5l1.2 2.7c1.6 3.6 6.5 6.3 11.4 6.3 3.2 0 4.6-.7 7.9-4 3.6-3.6 4-4.5 4-8.8 0-4-.5-5.5-3-8.2-2.6-2.9-3.7-3.4-8.8-3.8-5.2-.4-6.1-.1-9 2.3-1.8 1.5-3.2 3.3-3.2 4.1 0 1.1-2.8 1.4-15.5 1.4H113v-21h20v-7H58V58h68v55h17.4c16.6 0 17.5.1 18.1 2 1.9 5.9 11.7 8.8 17.3 5.3 4.4-2.9 5.1-4.5 5.2-11.5 0-6.2-.2-6.8-3.2-9.3-2.8-2.4-3.9-2.7-8.8-2.3-5.9.4-8.6 2-10.9 6.5-1.1 2.2-1.7 2.3-14.6 2.3H133V78h29V41.2l2.5-1.6c5-3.3 6.5-5.8 6.5-10.8 0-4.3-.4-5.2-4-8.8-3.6-3.6-4.5-4-8.8-4-4.1 0-5.3.5-8.5 3.5-3.4 3.2-3.7 4-3.7 8.9 0 5.7 2.4 10.1 6.2 11.5 1.8.6 1.9 1.9 2.1 15.9l.2 15.2H133V51h-20V24.8l4.5-4.4c4.1-4 4.5-4.7 4.5-9.2 0-4.3-.5-5.4-3.2-8.1-2.9-2.8-3.7-3.1-9.9-3.1-6.3 0-6.9.2-9.3 3.1zM203 92v57h10.8l26.7-49.3c14.8-27 27.1-49.5 27.4-49.9.3-.4.5 21.8.3 49.2l-.3 50h9.1V34.9l-5.7.3-5.7.3-25.3 47c-14 25.9-26.3 48.6-27.3 50.5-1.9 3.5-2 3.3-1.3-47.3l.6-50.7H203v57zM383 92v57h10.8l26.7-49.3c14.8-27 27.1-49.5 27.4-49.9.3-.4.5 21.8.3 49.2l-.3 50h9.1V34.9l-5.7.3-5.7.3-25.3 47c-14 25.9-26.3 48.6-27.3 50.5-1.9 3.5-2 3.3-1.3-47.3l.6-50.7H383v57zM461 38.5V42h34v107h9V42h16.9c16.6 0 16.9 0 17.5-2.3.3-1.2.6-2.8.6-3.5 0-.9-8.5-1.2-39-1.2h-39v3.5zM298 102v47h5.3l5.2-.1 22.9-40.9c12.6-22.6 22.9-41 23-41 .1 0 0 18.4-.2 41l-.3 41h9.1V54.9l-5.6.3-5.6.3-22.7 40.6-22.6 40.5-.3-40.8L306 55h-8v47z"/>
    </g>
</svg>
