<svg version="1" xmlns="http://www.w3.org/2000/svg" width="841.333" height="304" viewBox="0 0 631.000000 228.000000">
    <g fill="#fff">
        <path d="M64.4 2.9c-5.2 5.3-5.6 6.1-5.7 12-.1 11.2 8.3 18.2 19.5 16.5 3-.5 5.3-1.8 7.7-4.1l3.3-3.3H111.9l2.4 3.2c1.3 1.8 3.1 4.8 4 6.5l1.5 3.3H61.9l-2.5 2.7C56.9 42.3 52 51.3 52 53.1c0 .5 15.3.9 37.3.9 35.5 0 37.3.1 40.5 2 1.8 1.1 3.9 3.5 4.7 5.3 1.8 4.3 4.2 6.3 8.8 7.1 5.2 1 12.7-.3 12.7-2 0-.8-1-3.1-2.3-5.2-1.2-2-2.8-4.8-3.5-6.2-.7-1.4-2.5-4.6-4-7.1-1.5-2.6-7.2-12.3-12.7-21.8C121.3 5.3 122.4 6 102.2 6H88.4l-2.9-3C82.8.2 82.2 0 75 0s-7.9.2-10.6 2.9zm16 7c2 2.2 2.4 8.4.7 10.5-.7.8-2.5 1.9-4.1 2.6-2.5 1-3.3.9-6-1-3.9-2.8-4.8-6.4-2.5-10.7 1.6-2.9 2.3-3.3 6-3.3 2.9 0 4.7.6 5.9 1.9zM178.5 5.4c-5.9 2.7-7.9 6-8.3 14-.4 7-.3 7.5 2.7 10.9 1.7 1.9 5.1 4.3 7.5 5.3 3.4 1.4 5.1 3 7.5 7 1.7 2.9 3.1 5.7 3.1 6.3 0 .6.4 1.1.8 1.1.5 0 1.5 1.8 2.2 3.9 1 3.2 1 4.6 0 7-.7 1.7-1.5 3.1-1.9 3.1-.4 0-1.2 1.5-1.9 3.2l-1.3 3.3-2.3-4.5c-1.2-2.5-4.6-8.5-7.4-13.3-2.9-4.9-5.2-9.1-5.2-9.3 0-1.3-13.4-23-14.8-24.2-2-1.5-18.2-1.7-18.2-.2 0 .6 1.7 4.1 3.7 7.8s4.8 8.9 6.3 11.7c1.5 2.7 5 9 7.8 13.8 2.9 4.9 5.2 9.2 5.2 9.6 0 .4.9 1.8 2 3.1s2 2.9 2 3.7c0 .7.4 1.3.8 1.3s1.3 1.2 2 2.7c.7 1.6 2.3 4.8 3.7 7.3 3.2 6 3.1 9-.5 14.8-1.6 2.7-3 5.7-3 6.6 0 .9 1.5 4.6 3.3 8.1 2.5 5 3.7 6.5 5.2 6.3 2.8-.4 34.4-54 34.5-58.5 0-3.1-4.3-12.4-10.9-22.9-3.1-5.1-3.1-5.2-1.6-9.5 1.3-3.7 1.4-5 .3-8.7-1.4-4.6-5.8-9.9-9.6-11.3-3.4-1.3-10.2-1-13.7.5zm11.6 7.9c4.4 3.4 4.7 10.3.6 13.2-5.2 3.7-12.7.1-12.7-6 0-6.2 7.6-10.7 12.1-7.2zM273 47.5V57h9.3l9.2.1-4 2.4-4 2.4.3 63.1.2 63.1 10.1-.3 10.1-.3 11.8-37c6.4-20.4 14.6-47.2 18.1-59.7 3.4-12.5 6.4-22.6 6.5-22.5.1.1-.4 9-1.2 19.7-.7 11.2-1.3 36.7-1.4 59.7V188h19V38h-25.8l-1.1 3.2c-9.9 30.9-17.1 55.4-22.7 78-3.7 15.2-6.9 27.6-7.1 27.5-.1-.2.4-13.3 1.2-29.2.8-16 1.5-40.4 1.5-54.3V38h-30v9.5zM447 47.5V57h9.3l9.2.1-4 2.4-4 2.4.3 63.1.2 63.1 10.1-.3 10.1-.3 11.8-37c6.4-20.4 14.6-47.2 18.1-59.7 3.4-12.5 6.4-22.6 6.5-22.5.1.1-.4 9-1.2 19.7-.7 11.2-1.3 36.7-1.4 59.7V188h19V38h-25.8l-1.1 3.2c-9.9 30.9-17.1 55.4-22.7 78-3.7 15.2-6.9 27.6-7.1 27.5-.1-.2.4-13.3 1.2-29.2.8-16 1.5-40.4 1.5-54.3V38h-30v9.5zM548 54v16h17V55h15v133h19V55h15v15h17V38h-83v16z"/>
        <path d="M33.5 62.2c-2 2.4-4.2 5.3-4.8 6.5-.5 1.3-1.4 2.3-1.9 2.3-.4 0-.8.6-.9 1.2 0 .7-1.9 4-4.2 7.2-3.7 5.3-4.8 6.1-9.2 7.2-3.8 1-5.9 2.3-8.8 5.5C.3 95.9 0 96.7 0 102.2c0 4.8.5 6.6 2.6 9.3 7.3 9.6 18.4 10 26.3.9 2.8-3.1 3.1-4.1 3.1-10.3 0-6.6.2-7.2 5.5-15.2 3-4.6 5.9-9 6.5-9.7 1.2-1.4 15-1.7 15-.4 0 .5-.8 1.8-1.7 3-1 1.1-4.5 6.3-7.8 11.4-3.2 5.1-9.1 14.2-13.1 20.3-3.9 6-7.4 12-7.8 13.3-.8 2.5 6.1 17.4 7.9 16.9.5-.2 2.9-3.2 5.2-6.8 2.4-3.5 4.8-7.1 5.3-7.9 6.6-9.4 23.6-36 25.8-40.2.8-1.6 3.3-4.4 5.5-6.4 3.7-3.4 4.3-3.6 9.1-3.1 2.9.3 6.3 0 7.9-.6 3.1-1.3 9.7-10.1 9.7-12.9 0-2.4-.9-2.5-28-3.9-12.9-.6-27.2-1.4-31.6-1.6l-8.1-.4-3.8 4.3zM21 95.9c1.9 1.5 2.5 2.9 2.5 5.9 0 5.4-2.6 8.2-7.5 8.2-7.4 0-10.3-8.9-4.4-13.6 3.5-2.9 6.1-3 9.4-.5zM206.6 91.3c-3.8 6.1-9.1 14.7-11.8 19-2.6 4.3-4.8 8.2-4.8 8.7 0 .6-.4 1-.9 1s-1.1.8-1.4 1.7c-.4 1-2 4-3.6 6.8-1.7 2.7-3.8 6.5-4.7 8.3-.9 1.8-3.3 4.6-5.3 6.2-3.2 2.7-4.3 3-10.3 3-6.5 0-6.7.1-9.7 3.7-1.7 2.1-3.1 4.3-3.1 4.9 0 .6-.7 1.7-1.5 2.4s-1.5 2-1.5 3c0 1.5 1.8 1.8 16.7 2.3 9.1.4 24.6.7 34.5.7 16.3 0 17.9-.2 19.6-1.9 2.7-3 3.7-4.5 4.5-6.1.3-.8 3-5.3 5.9-9.9 4-6.4 6-8.7 8.1-9.2 3.7-1 9.7-5.6 9.7-7.5 0-.7.5-1.4 1-1.4.6 0 1-2.7 1-6 0-10.2-5.3-16.1-15.1-16.8-4.7-.4-6.5 0-9.3 1.8-6.9 4.2-9.3 10.4-7.4 19.3.9 4.4.8 5.2-1.6 8.7-1.4 2.2-2.6 4.4-2.6 5 0 .5-.3 1-.7 1-.5 0-1.6 1.4-2.5 3-1.6 2.9-2 3-8.8 3-7.3 0-7.9-.3-5.7-2.9 1.4-1.6 12-19.1 16.5-27.1 1.4-2.5 2.8-4.7 3.2-5 .4-.3 2-2.9 3.5-5.8s3.1-5.5 3.6-5.8c.5-.3.9-2 .9-3.9 0-3.6-6.4-15.5-8.4-15.5-.6 0-4.2 5.1-8 11.3zm32 22.7c.1 0 .7 1.3 1.3 3 1.2 3.6-.2 8.6-2.9 10-7.2 3.8-14.4-3.6-10.6-10.9 1.7-3.2 4.4-4.1 9.1-2.9 1.6.4 3.1.8 3.1.8zM373 90v7h5.8c4.9.1 5.5.2 4 1.4-1.7 1.2-1.8 4.6-1.8 45.5V188h14.5l8.3-26.2c4.5-14.5 10.3-33.3 12.8-41.8 2.4-8.5 4.2-14.2 3.9-12.5-.3 1.6-.9 20.4-1.2 41.7l-.6 38.8H432V83h-17.9l-5.7 17.7c-3.2 9.8-7.8 26.1-10.4 36.3l-4.7 18.5.5-36.3.5-36.2H373v7zM72.3 107.1c-1.2.4-2.7 1.8-3.4 3.1-.7 1.3-1.5 2.5-1.8 2.8-1.2 1-6.1 9-6.1 9.9 0 .5-.3 1.1-.8 1.3-.4.1-4.1 5.7-8.2 12.3-4.1 6.6-7.7 12.2-8 12.5-.4.3-2 2.9-3.6 5.7-1.6 2.9-3.2 5.3-3.6 5.3-2 0-.6 8.2 2.1 12.8 1.6 2.7 3.2 6 3.6 7.3.4 1.3 1 2.6 1.4 2.9.3.3 1.6 2.6 2.9 5.3 2.1 4.2 2.2 5.3 1.3 9.5-2.7 12.9 6.1 22.9 18.6 20.9 12.5-2.1 17.6-19 8.3-27.8-2.1-2-5.1-3.9-6.8-4.2-2.6-.5-3.6-1.9-8.1-10.8-2.8-5.5-5.1-10.6-5.1-11.3 0-.6 1.5-3.5 3.4-6.4 2.5-4 3.5-5 4.3-4 1 1.4 4.9 8.8 12.2 23.3 2.4 4.9 4.7 9.2 5 9.5.4.3 2.4 4 4.5 8.2 2.1 4.3 4.4 8.2 5 8.7.6.5 5.1 1.1 9.9 1.2l8.9.4-.6-3c-.4-1.6-1-3.1-1.4-3.5-.4-.3-3.6-6.1-7.1-13-17.6-34.3-21.3-41.3-22.6-42.2-.5-.4-.6-.8-.1-.8s.3-.7-.4-1.5c-2.4-2.9-1.5-9.7 1.9-14.6 1.7-2.6 3.1-5.4 3.1-6.2 0-.8-1.5-4.3-3.3-7.9-2.9-5.7-3.6-6.4-5.4-5.7zm-3.2 89.8c2.9 2.3 3.1 8.1.4 11.1-2.5 2.7-8.8 2.7-11.5 0-2.6-2.6-2.6-8 0-10.8 2.6-2.8 7.9-2.9 11.1-.3zM95 156.7c.1 1.6 1.9 5.9 4 9.8 2.2 3.8 5.4 9.9 7.2 13.5 1.8 3.6 3.5 6.7 3.8 7 .6.6 2 3.2 8.9 16.4 2.5 4.9 5.8 10.2 7.3 11.6 2.6 2.6 3.1 2.7 17.2 3.2l14.5.5 2.6 3.1c8.1 9.6 22.1 7.9 27.9-3.5 6.1-12-6.2-25.8-19.7-22.2-2.3.6-5.2 2.2-6.5 3.6-2.2 2.5-2.4 2.5-10.4 1.4-4.5-.6-9.8-1.1-11.9-1.1-3.5 0-3.9-.3-6.8-5.9l-3.1-6 29.3.6 29.3.6 2.5-3.4c1.3-1.8 2.9-4.3 3.5-5.4.6-1.1 1.7-3 2.4-4.2.8-1.2 1.2-2.5.9-2.8-1-.9-24.4-2.3-49.9-3-27.8-.8-28.4-.9-32.3-8.4-2.9-5.7-7.1-8-14.9-8.1-5.7 0-5.8.1-5.8 2.7zm81.8 48c3.6 2.3 4.2 3.2 4.2 6.8 0 5.1-2.4 7.5-7.5 7.5-3.7 0-4.7-.4-6.2-2.8-2.9-4.4-1.9-9.3 2.6-11.7 3.4-1.8 3.7-1.8 6.9.2z"/>
    </g>
</svg>
