<svg id="newspaper_" data-name="newspaper" xmlns="http://www.w3.org/2000/svg" viewBox="0 0 45 45">
    <defs>
        <style>
            .cls-1{fill:#555a66}.cls-2{fill:#333940}.cls-3{fill:#dce1eb}.cls-4{fill:#fff}.cls-5{fill:#e9edf5}.cls-6{fill:#fa5d0f}
        </style>
    </defs>
    <g id="Group_202" data-name="Group 202">
        <g id="Group_201" data-name="Group 201">
            <g id="Group_200" data-name="Group 200">
                <g id="Group_199" data-name="Group 199">
                    <g id="Group_198" data-name="Group 198">
                        <g id="Group_197" data-name="Group 197">
                            <g id="Group_196" data-name="Group 196">
                                <g id="Group_195" data-name="Group 195">
                                    <g id="Group_194" data-name="Group 194">
                                        <g id="Group_193" data-name="Group 193">
                                            <ellipse id="Ellipse_25" data-name="Ellipse 25" class="cls-1" cx="22.5" cy="22.5" rx="22.5" ry="22.5"/>
                                        </g>
                                    </g>
                                </g>
                            </g>
                        </g>
                    </g>
                </g>
            </g>
        </g>
    </g>
    <path id="Path_188" data-name="Path 188" class="cls-2" d="M111.818 135.937a20.244 20.244 0 0 0-.659-5.13L104.994 125 72.9 144.2l13.78 12.982a24.309 24.309 0 0 0 2.446.124c12.535.004 22.692-9.565 22.692-21.369z" transform="translate(-66.818 -112.31)"/>
    <g id="Group_203" data-name="Group 203" transform="translate(5.009 21.36)">
        <path id="Path_189" data-name="Path 189" class="cls-3" d="M75 239v7.081a3.689 3.689 0 0 0 3.689 3.689h-15A3.689 3.689 0 0 1 60 246.081V239z" transform="translate(-60 -239)"/>
    </g>
    <g id="Group_204" data-name="Group 204" transform="translate(10.606 11.483)">
        <path id="Path_190" data-name="Path 190" class="cls-4" d="M114.783 125v16.6a3.689 3.689 0 0 1-3.689 3.689h23.353a3.689 3.689 0 0 0 3.689-3.689V125z" transform="translate(-111.094 -125)"/>
    </g>
    <g id="Group_205" data-name="Group 205" transform="translate(26.836 11.483)">
        <path id="Path_191" data-name="Path 191" class="cls-5" d="M299.952 125v20.288h7.586a3.689 3.689 0 0 0 3.689-3.689V125z" transform="translate(-299.952 -125)"/>
    </g>
    <g id="Group_210" data-name="Group 210" transform="translate(16.308 13.522)">
        <g id="Group_206" data-name="Group 206" transform="translate(0 .052)">
            <path id="Path_192" data-name="Path 192" class="cls-6" d="M181.377 153.864h.879l1.147 1.685v-1.685h.887v3.045h-.89l-1.14-1.672v1.672h-.885z" transform="translate(-181.377 -153.864)"/>
        </g>
        <g id="Group_207" data-name="Group 207" transform="translate(3.535 .052)">
            <path id="Path_193" data-name="Path 193" class="cls-6" d="M223.721 153.864h2.522v.65h-1.579V155h1.464v.621h-1.464v.6h1.624v.69h-2.567v-3.045z" transform="translate(-223.721 -153.864)"/>
        </g>
        <g id="Group_208" data-name="Group 208" transform="translate(6.296 .052)">
            <path id="Path_194" data-name="Path 194" class="cls-6" d="M256.788 153.864h.894l.322 1.7.471-1.7h.891l.472 1.7.322-1.7h.889l-.671 3.045h-.923l-.534-1.917-.532 1.917h-.923z" transform="translate(-256.788 -153.864)"/>
        </g>
        <g id="Group_209" data-name="Group 209" transform="translate(10.699)">
            <path id="Path_195" data-name="Path 195" class="cls-6" d="M309.532 155.331l.9-.056a.682.682 0 0 0 .118.332.5.5 0 0 0 .415.185.46.46 0 0 0 .31-.095.283.283 0 0 0 .109-.219.28.28 0 0 0-.1-.212 1.2 1.2 0 0 0-.482-.177 2.048 2.048 0 0 1-.883-.37.744.744 0 0 1-.266-.588.8.8 0 0 1 .136-.443.9.9 0 0 1 .409-.328 1.91 1.91 0 0 1 .749-.119 1.532 1.532 0 0 1 .89.217.937.937 0 0 1 .364.691l-.887.052a.415.415 0 0 0-.461-.393.378.378 0 0 0-.247.07.213.213 0 0 0-.083.169.169.169 0 0 0 .069.131.77.77 0 0 0 .316.112 3.952 3.952 0 0 1 .884.269.929.929 0 0 1 .388.338.856.856 0 0 1 .122.451.965.965 0 0 1-.162.54 1.014 1.014 0 0 1-.453.375 1.83 1.83 0 0 1-.733.128 1.51 1.51 0 0 1-1.076-.3 1.181 1.181 0 0 1-.346-.76z" transform="translate(-309.532 -153.241)"/>
        </g>
    </g>
    <g id="Group_213" data-name="Group 213" transform="translate(16.557 18.733)">
        <g id="Group_211" data-name="Group 211" transform="translate(10.983)">
            <path id="Rectangle_78" data-name="Rectangle 78" class="cls-3" d="M0 0h8.723v2.421H0z"/>
        </g>
        <g id="Group_212" data-name="Group 212">
            <path id="Rectangle_79" data-name="Rectangle 79" class="cls-5" d="M0 0h8.723v2.421H0z"/>
        </g>
    </g>
    <g id="Group_216" data-name="Group 216" transform="translate(16.557 22.612)">
        <g id="Group_214" data-name="Group 214" transform="translate(10.983)">
            <path id="Rectangle_80" data-name="Rectangle 80" class="cls-3" d="M0 0h8.723v2.421H0z"/>
        </g>
        <g id="Group_215" data-name="Group 215">
            <path id="Rectangle_81" data-name="Rectangle 81" class="cls-5" d="M0 0h8.723v2.421H0z"/>
        </g>
    </g>
    <g id="Group_219" data-name="Group 219" transform="translate(16.557 26.491)">
        <g id="Group_217" data-name="Group 217" transform="translate(10.983)">
            <path id="Rectangle_82" data-name="Rectangle 82" class="cls-3" d="M0 0h8.723v2.421H0z"/>
        </g>
        <g id="Group_218" data-name="Group 218">
            <path id="Rectangle_83" data-name="Rectangle 83" class="cls-5" d="M0 0h8.723v2.421H0z"/>
        </g>
    </g>
</svg>
