<svg xmlns="http://www.w3.org/2000/svg" viewBox="0 0 295.56 295.56">
    <defs>
        <style>
            .cls-1{opacity:.18}.cls-2{fill:#d2c3c3}
        </style>
    </defs>
    <g id="solar-system" class="cls-1">
        <path id="Path_177" data-name="Path 177" class="cls-2" d="M162.32 184.031l-4.732-1.538a4.716 4.716 0 0 0-2.915 8.971l4.721 1.536a45.491 45.491 0 0 0 0 19.053l-4.721 1.534a4.716 4.716 0 1 0 2.915 8.971l4.732-1.538a45.809 45.809 0 0 0 11.2 15.4l-2.931 4.035a4.716 4.716 0 1 0 7.63 5.545l2.929-4.032a45.25 45.25 0 0 0 18.11 5.907v4.96a4.716 4.716 0 1 0 9.433 0v-4.96a45.25 45.25 0 0 0 18.11-5.907l2.93 4.032a4.716 4.716 0 1 0 7.63-5.545l-2.931-4.035a45.808 45.808 0 0 0 11.2-15.4l4.731 1.538a4.716 4.716 0 0 0 2.915-8.971l-4.72-1.534a45.5 45.5 0 0 0 0-19.054l4.72-1.534a4.716 4.716 0 0 0-2.915-8.971l-4.731 1.538a45.808 45.808 0 0 0-11.2-15.4l2.931-4.035a4.716 4.716 0 1 0-7.631-5.544l-2.929 4.032a45.25 45.25 0 0 0-18.11-5.907v-4.959a4.716 4.716 0 1 0-9.433 0v4.96a45.251 45.251 0 0 0-18.11 5.907l-2.929-4.032a4.716 4.716 0 1 0-7.631 5.544l2.931 4.035a45.831 45.831 0 0 0-11.199 15.398zm41.657-17.665a36.159 36.159 0 1 1-36.159 36.159 36.2 36.2 0 0 1 36.159-36.159z" transform="translate(-56.197 -54.744)"/>
        <path id="Path_178" data-name="Path 178" class="cls-2" d="M252.276 43.284A147.78 147.78 0 1 0 43.284 252.276a147.858 147.858 0 0 0 176.641 24.506 4.716 4.716 0 1 0-4.611-8.228 138.422 138.422 0 0 1-67.534 17.573c-76.285 0-138.347-62.062-138.347-138.347S71.495 9.433 147.78 9.433 286.127 71.495 286.127 147.78a138.407 138.407 0 0 1-17.583 67.54 4.716 4.716 0 1 0 8.228 4.612 147.841 147.841 0 0 0-24.5-176.649z"/>
        <path id="Path_179" data-name="Path 179" class="cls-2" d="M381.021 355.867a25.154 25.154 0 1 0 25.154 25.154 25.183 25.183 0 0 0-25.154-25.154zm0 40.875a15.721 15.721 0 1 1 15.721-15.721 15.739 15.739 0 0 1-15.721 15.721z" transform="translate(-132.08 -132.08)"/>
        <path id="Path_180" data-name="Path 180" class="cls-2" d="M103.441 246.844A101.4 101.4 0 1 0 137.9 80.8a4.717 4.717 0 1 0 3.56 8.735 91.975 91.975 0 1 1-51.875 51.819 4.717 4.717 0 1 0-8.776-3.46 101.416 101.416 0 0 0 22.632 108.95z" transform="translate(-27.363 -27.361)"/>
        <path id="Path_181" data-name="Path 181" class="cls-2" d="M111.436 86.282a25.154 25.154 0 1 0 17.786 7.368 24.986 24.986 0 0 0-17.786-7.368zm11.117 36.271a15.721 15.721 0 1 1 0-22.234 15.619 15.619 0 0 1 0 22.234z" transform="translate(-32.023 -32.023)"/>
    </g>
</svg>
