<svg xmlns="http://www.w3.org/2000/svg" viewBox="0 0 48 48">
    <defs>
        <style>
            .a{fill:#84dbff}.b{fill:#f1543f}.c{fill:#ff7058}.d{fill:#f9b54c}.e{fill:#4cdbc4}.f{fill:#fff}.g{fill:#ffd05b}.h{fill:#e6e9ee}.i{fill:#2b3b4e}.j{fill:#324a5e}.k{fill:#54c0eb}
        </style>
    </defs>
    <circle class="a" cx="24" cy="24" r="24"/>
    <path class="b" d="M41.69 18.029a1.36 1.36 0 0 1-.265.831 5.928 5.928 0 0 0-2.835-.68 5.345 5.345 0 0 0-2.835.68 1.661 1.661 0 0 1-.265-.831c0-1.134 1.4-2.079 3.1-2.079s3.1.945 3.1 2.079z"/>
    <path class="c" d="M43.918 24.038a14.371 14.371 0 0 1-.491 3.553h-9.676c-.076-.34-.151-.643-.227-.983a11.275 11.275 0 0 0 1.4-7.181 5.239 5.239 0 0 1 3.628-1.247c2.985 0 5.366 1.625 5.366 5.858z"/>
    <path class="d" d="M42.029 30.992a3.593 3.593 0 0 1-1.474 3.061l-5.443-2.646a3.578 3.578 0 0 1 .3-1.134c.831 1.512 1.965 2.532 3.213 2.532s2.381-1.058 3.213-2.532a3.986 3.986 0 0 1 .189.718z"/>
    <path class="e" d="M45.884 33.865a23.064 23.064 0 0 1-3.213 5.216l-.3-.983a14.366 14.366 0 0 0 .454-5.745z"/>
    <path class="f" d="M42.368 38.097l-1.209-3.78-.6-.3a3.593 3.593 0 0 0 1.474-3.061c1.696 1.321.562 6.385.335 7.141zM35.147 30.992c-.038.113-.038.265-.076.416l-.227-.113a1.151 1.151 0 0 1 .303-.303z"/>
    <path class="g" d="M43.729 28.044c-.34.68-.907.983-1.285.756-.869 2.23-2.268 3.969-3.893 3.969s-3.024-1.739-3.893-3.969c-.378.227-.945-.113-1.285-.756a2.832 2.832 0 0 1-.265-.869 7.554 7.554 0 0 0 .567-.983.738.738 0 0 1 .265.038l.038.038c0-.038-.151-1.436 3.553-2.948a6.765 6.765 0 0 0 2.646-1.7 3.207 3.207 0 0 0 1.852 2.457s1.134.265 1.02 2.154a.526.526 0 0 1 .529.038 1.334 1.334 0 0 1 .151 1.775z"/>
    <path class="h" d="M32.39 37.342c-.076.529-.189 1.1-.265 1.7l-1.322-4.006a4.837 4.837 0 0 1 1.587 2.306z"/>
    <path class="d" d="M32.011 28.724s.454 2.495-3.175 4.649l-4.12-2a3.607 3.607 0 0 1-.869-2.646h-.036a.286.286 0 0 1 .038-.151 4.766 4.766 0 0 0 8.164 0c0 .076.038.113 0 .151z"/>
    <path class="i" d="M42.671 39.08a24.05 24.05 0 0 1-8.428 6.614l-2.154-6.652c.113-.567.189-1.134.265-1.7.038.076 1.209-4.309.567-6.954l8.164 3.931z"/>
    <path class="f" d="M32.391 37.342a4.657 4.657 0 0 0-1.587-2.306l-.265-.832-1.663-.794c3.628-2.154 3.175-4.649 3.175-4.649 2.225 1.664.378 8.694.34 8.581zM24.718 31.37l-1.814-.869a2.9 2.9 0 0 1 .945-1.776 3.607 3.607 0 0 0 .869 2.645z"/>
    <path class="g" d="M33.145 25.436a23.463 23.463 0 0 0-.756 2.683c-1.209 1.625-2.759 2.759-4.422 2.759a5.644 5.644 0 0 1-4.233-2.457.037.037 0 0 1 .038.038 7.8 7.8 0 0 1-1.361-5.065 14.409 14.409 0 0 0 .907-3.4c1.512 1.134 4.989 1.209 4.989 1.209a2.341 2.341 0 0 1-2.041-1.7c.3.869 4.233 1.4 4.233 1.4 4.008.564 2.646 4.533 2.646 4.533z"/>
    <path class="i" d="M23.736 28.46a11.612 11.612 0 0 1-2.419-2.91 16.392 16.392 0 0 0 1.058-2.154 7.8 7.8 0 0 0 1.361 5.064zM32.391 28.154a26.47 26.47 0 0 1 .756-2.683s1.361-3.969-2.721-4.573c0 0-3.931-.529-4.233-1.4a2.358 2.358 0 0 0 2.041 1.7s-3.477-.076-4.989-1.209a10.869 10.869 0 0 0-.907-6.047 4.26 4.26 0 0 1 3.213-.189s5.518-2.192 8.353 2.8c3.022 5.331-.758 11.114-1.513 11.601z"/>
    <path class="j" d="M31.597 22.602h-7.328a1.1 1.1 0 0 0-1.1 1.1v.907a1.1 1.1 0 0 0 1.1 1.1h2.117a1.193 1.193 0 0 0 .718-.265.3.3 0 0 0 .151-.151.7.7 0 0 1 1.361 0 .3.3 0 0 0 .151.151 1 1 0 0 0 .718.265h2.117a1.1 1.1 0 0 0 1.1-1.1v-.907a1.1 1.1 0 0 0-1.105-1.1zm-7.332 2.57a.581.581 0 0 1-.567-.567v-.903a.581.581 0 0 1 .567-.567h2.154a.581.581 0 0 1 .567.567v.907a.479.479 0 0 1-.038.227c-.038.038-.038.076-.076.113a.539.539 0 0 1-.454.227zm3.666-.983a1.006 1.006 0 0 0-.454.113v-.643a1.252 1.252 0 0 0-.151-.567h1.243a.984.984 0 0 0-.151.567v.643a1.3 1.3 0 0 0-.487-.113zm4.233.416a.581.581 0 0 1-.567.567H29.48a.539.539 0 0 1-.454-.227c-.038-.038-.038-.076-.076-.113a.479.479 0 0 1-.038-.227v-.903a.581.581 0 0 1 .567-.567h2.117a.581.581 0 0 1 .567.567z"/>
    <path class="h" d="M7.332 41.235c.038.076.113.113.151.151-.038-.038-.113-.076-.151-.151zM15.118 33.6c-.038 0-.076.038-.113.038s-.076-.038-.113-.038zM20.22 37.758a59.982 59.982 0 0 1-2.23 9.487 24.343 24.343 0 0 1-6.879-2.986 49.658 49.658 0 0 1-1.323-6.5 6.266 6.266 0 0 1 5.216-4.12s4.045.339 5.216 4.119z"/>
    <path class="d" d="M19.805 27.59s.6 3.4-4.8 6.047h-.038c-5.4-2.646-4.8-6.047-4.8-6.047h-.038c0-.038.038-.113.038-.151a5.635 5.635 0 0 0 9.6 0c.038.076.076.113.038.151.037.038.037 0 0 0z"/>
    <path class="k" d="M16.932 34.167l-.643 1.852h-2.532l-.643-1.852a6.907 6.907 0 0 1 1.89-.529 6.962 6.962 0 0 1 1.928.529z"/>
    <path class="a" d="M17.872 47.206l-1.583-11.187h-2.532l-1.285 9.033a23.394 23.394 0 0 0 5.4 2.154z"/>
    <path class="j" d="M11.111 44.259a24.055 24.055 0 0 1-9.335-11.15l7.332-3.515c-.756 3.175.643 8.315.68 8.2a59.713 59.713 0 0 0 1.323 6.465z"/>
    <g>
        <path class="f" d="M19.805 27.591s.6 3.4-4.8 6.047a6.147 6.147 0 0 1 5.216 4.12c.075.113 2.267-8.126-.416-10.167zM10.203 27.591c-2.646 2-.454 10.28-.416 10.129a6.266 6.266 0 0 1 5.216-4.12c-5.4-2.57-4.8-6.009-4.8-6.009z"/>
    </g>
    <path class="g" d="M21.128 23.736a32.991 32.991 0 0 0-.907 3.17c-1.4 1.928-3.213 3.213-5.216 3.213-1.89 0-3.591-1.172-4.989-2.91l.038.038c-2.948-3.628-.907-10.318-.907-10.318 1.474 1.663 6.236 1.776 6.236 1.776a2.792 2.792 0 0 1-2.419-2c.34 1.02 4.951 1.625 4.951 1.625 4.8.757 3.213 5.406 3.213 5.406z"/>
    <g>
        <path class="j" d="M12.246 9.978s6.5-2.608 9.789 3.288c3.553 6.274-.907 13.115-1.814 13.644a32.993 32.993 0 0 1 .907-3.175s1.587-4.649-3.175-5.367c0 0-4.649-.6-4.951-1.625a2.792 2.792 0 0 0 2.419 2s-4.762-.113-6.236-1.776c0 0-2.041 6.69.945 10.318 0 0-5.1-4.082-4.5-10.394-.036.003-.301-8.652 6.616-6.913zM34.243 45.695a23.927 23.927 0 0 1-16.214 1.55 59.985 59.985 0 0 0 2.23-9.489c.076 0 1.4-5.065.68-8.2l9.6 4.649z"/>
    </g>
</svg>
