<svg xmlns="http://www.w3.org/2000/svg" viewBox="0 0 23.586 23.586">
    <defs>
        <style>
            .a{fill:#7aa5da}.b{fill:#5786b5}.c{fill:#fff}.d{fill:#9ec2e5}.e{fill:#d1d1d1}.f{fill:#dadde0}.g{fill:#adbcc9}
        </style>
    </defs>
    <g>
        <ellipse class="a" cx="11.793" cy="11.793" rx="11.793" ry="11.793"/>
        <path class="b" d="M23.582 11.52l-5.235-5.226L9.82 16.688l6.14 6.14a11.8 11.8 0 0 0 7.626-11.035c0-.091-.002-.182-.004-.273z"/>
        <path class="c" d="M17.678 6.153a.635.635 0 0 1 .853.722l-2.11 10.078a.664.664 0 0 1-1.043.4l-3.183-2.336-1.622 1.657a.539.539 0 0 1-.9-.215l-1.171-3.716-3.138-.927a.45.45 0 0 1-.037-.851zM16.13 8.389a.15.15 0 0 0-.178-.239l-6.772 4.2a.308.308 0 0 0-.132.353l.924 4.056a.059.059 0 0 0 .115-.011l.206-3.091a.306.306 0 0 1 .1-.2z"/>
        <path class="d" d="M15.951 8.148a.15.15 0 0 1 .178.239l-5.735 5.071a.306.306 0 0 0-.1.2l-.206 3.091a.059.059 0 0 1-.115.011l-.924-4.056a.308.308 0 0 1 .132-.353z"/>
        <path class="c" d="M10.003 16.8a.53.53 0 0 1-.33-.344L8.502 12.74l-3.138-.927a.45.45 0 0 1-.037-.851l12.35-4.81a.633.633 0 0 1 .767.251.665.665 0 0 0-.1-.12l-8.377 6.838v.3l-.046-.033.046 1.885v1.512a.3.3 0 0 0 .037.014z"/>
        <path class="e" d="M18.543 6.704a.691.691 0 0 1-.014.169l-2.106 10.078a.664.664 0 0 1-1.043.4l-3.183-2.336-2.229-1.595v-.3l8.377-6.838a.661.661 0 0 1 .1.12l.017.027.015.028c0 .01.01.019.014.029l.013.03c0 .009.007.018.01.029a.631.631 0 0 1 .024.1l.005.059z"/>
        <path class="e" d="M12.195 15.01l-1.622 1.657c-.013.014-.028.027-.042.039s-.029.022-.044.033a.559.559 0 0 1-.094.05.4.4 0 0 1-.049.017.538.538 0 0 1-.21.019c-.018 0-.037 0-.054-.008h-.007l-.052-.015a.07.07 0 0 1-.017-.006l-.037-1.526v-1.85z"/>
        <path class="f" d="M10.535 16.71a.459.459 0 0 1-.044.033.25.25 0 0 1 .044-.033zM10.488 16.743zM10.392 16.793a.56.56 0 0 0 .094-.05.6.6 0 0 1-.094.05zM10.134 16.829a.538.538 0 0 0 .21-.019.5.5 0 0 1-.153.023h-.047a.02.02 0 0 1-.01-.004z"/>
        <path class="c" d="M10.191 16.832h-.047zM10.134 16.829a.021.021 0 0 0 .01 0 .312.312 0 0 1-.048-.006z"/>
        <path class="f" d="M10.134 16.829h-.054c.017-.005.036-.002.054 0zM10.02 16.804l.052.015h-.03z"/>
        <g>
            <path class="c" d="M10.051 16.814h.021zM10.021 16.804l.022.007a.214.214 0 0 1-.036-.011z"/>
        </g>
        <path class="f" d="M10.02 16.804h-.013a.074.074 0 0 0 .013 0z"/>
        <path class="e" d="M9.966 15.271l.037 1.526a.294.294 0 0 1-.037-.014z"/>
        <path class="f" d="M9.966 13.419v1.852l-.046-1.885z"/>
        <path class="g" d="M16.129 8.387l-5.735 5.071a.306.306 0 0 0-.1.2l-.206 3.091a.059.059 0 0 1-.116.011l-.923-4.056a.308.308 0 0 1 .132-.353l6.772-4.2a.149.149 0 0 1 .176.236z"/>
    </g>
</svg>
