<svg xmlns="http://www.w3.org/2000/svg" viewBox="0 0 23.51 23.51">
    <defs>
        <style>
            .a{fill:#55acee}.b{fill:#f1f2f2}
        </style>
    </defs>
    <g>
        <ellipse class="a" cx="11.755" cy="11.755" rx="11.755" ry="11.755"/>
        <path class="b" d="M18.957 8.448a5.606 5.606 0 0 1-1.614.442 2.817 2.817 0 0 0 1.236-1.554 5.625 5.625 0 0 1-1.784.682 2.812 2.812 0 0 0-4.788 2.563 7.976 7.976 0 0 1-5.792-2.936 2.813 2.813 0 0 0 .869 3.751 2.79 2.79 0 0 1-1.273-.352v.036a2.811 2.811 0 0 0 2.254 2.755 2.821 2.821 0 0 1-1.269.049 2.813 2.813 0 0 0 2.625 1.951 5.672 5.672 0 0 1-4.164 1.167 7.99 7.99 0 0 0 12.3-6.732c0-.122 0-.243-.008-.363a5.7 5.7 0 0 0 1.4-1.454z"/>
    </g>
</svg>
