<svg xmlns="http://www.w3.org/2000/svg" viewBox="0 0 23.51 23.51">
    <defs>
        <style>
            .a{fill:#4d76a1}.b{fill:#fff;fill-rule:evenodd}
        </style>
    </defs>
    <ellipse class="a" cx="11.755" cy="11.755" rx="11.755" ry="11.755"/>
    <path class="b" d="M11.311 16.91h.923a.778.778 0 0 0 .421-.184.675.675 0 0 0 .127-.405s-.018-1.238.557-1.42 1.294 1.2 2.065 1.726a1.461 1.461 0 0 0 1.026.313l2.061-.029s1.078-.066.567-.914a6.888 6.888 0 0 0-1.538-1.775c-1.292-1.2-1.119-1.006.438-3.081.948-1.264 1.327-2.035 1.209-2.366-.113-.315-.81-.232-.81-.232l-2.321.014a.527.527 0 0 0-.3.053.65.65 0 0 0-.2.249 13.438 13.438 0 0 1-.857 1.81c-1.033 1.755-1.447 1.848-1.616 1.739-.393-.254-.295-1.02-.295-1.565 0-1.7.258-2.41-.5-2.593a3.963 3.963 0 0 0-1.083-.108 5 5 0 0 0-1.926.2c-.264.129-.468.417-.344.434a1.042 1.042 0 0 1 .685.344 2.239 2.239 0 0 1 .229 1.05s.137 2-.319 2.251c-.313.171-.742-.178-1.663-1.77a14.8 14.8 0 0 1-.829-1.717.69.69 0 0 0-.198-.26.962.962 0 0 0-.357-.144l-2.205.014s-.331.009-.453.153c-.108.128-.009.393-.009.393a25.1 25.1 0 0 0 3.682 6.075 5.3 5.3 0 0 0 3.828 1.744z"/>
</svg>
