<svg xmlns="http://www.w3.org/2000/svg" width="21.969" height="21.97" viewBox="0 0 21.969 21.97">
    <defs>
        <style>
            .cls-1{fill-rule:evenodd;filter:url(#filter)}
        </style>
        <filter id="filter" x="935" y="5760.03" width="21.969" height="21.97" filterUnits="userSpaceOnUse">
            <feFlood result="flood" flood-color="#d1d1d1"/>
            <feComposite result="composite" operator="in" in2="SourceGraphic"/>
            <feBlend result="blend" in2="SourceGraphic"/>
        </filter>
    </defs>
    <path id="left" class="cls-1" d="M942.583 5770.43l4.772-4.77a.735.735 0 0 1 1.04 1.04l-4.254 4.26 4.254 4.25a.735.735 0 0 1-1.04 1.04l-4.772-4.77a.731.731 0 0 1-.216-.52.759.759 0 0 1 .216-.53zm3.4-10.4A10.98 10.98 0 1 1 935 5771.01a10.979 10.979 0 0 1 10.987-10.98zm0 20.49a9.51 9.51 0 1 0-9.512-9.51 9.526 9.526 0 0 0 9.516 9.51z" fill="#3a3636" transform="translate(-935 -5760.03)"/>
</svg>
