<svg xmlns="http://www.w3.org/2000/svg" width="21.969" height="21.97" viewBox="0 0 21.969 21.97">
    <defs>
        <style>
            .cls-1{fill-rule:evenodd;filter:url(#filter)}
        </style>
        <filter id="filter" x="965.031" y="5760.03" width="21.969" height="21.97" filterUnits="userSpaceOnUse">
            <feFlood result="flood" flood-color="#c7b299"/>
            <feComposite result="composite" operator="in" in2="SourceGraphic"/>
            <feBlend result="blend" in2="SourceGraphic"/>
        </filter>
    </defs>
    <path id="right" class="cls-1" d="M979.417 5770.43l-4.772-4.77a.735.735 0 0 0-1.04 1.04l4.254 4.26-4.254 4.25a.735.735 0 0 0 1.04 1.04l4.772-4.77a.731.731 0 0 0 .216-.52.759.759 0 0 0-.216-.53zm-3.405-10.4A10.98 10.98 0 1 0 987 5771.01a10.978 10.978 0 0 0-10.988-10.98zm0 20.49a9.51 9.51 0 1 1 9.513-9.51 9.526 9.526 0 0 1-9.513 9.51z" fill="#3a3636" transform="translate(-965.031 -5760.03)"/>
</svg>
